<svg xmlns="http://www.w3.org/2000/svg" width="50" height="56" viewBox="0 0 50 56" fill="none"><g opacity="0.4"><path d="M44.8181 45.5383L34.2543 35.7245L35.5247 43.3572L30.9588 50.1793L44.8181 45.5383Z" fill="#1A73E9"></path><path d="M37.7208 44.259C37.7208 44.259 36.5718 44.8729 34.9653 44.5304C33.43 44.2782 31.2642 43.7915 29.0884 42.7274C29.0172 42.6372 28.7833 42.529 28.6206 42.511C28.4783 42.3306 28.1529 42.2946 27.9191 42.1864C27.6852 42.0781 27.3802 41.8797 26.9837 41.7535C26.6786 41.5551 26.2821 41.4289 25.9059 41.1403C25.1332 40.7254 24.2893 40.2204 23.2827 39.6973C22.3676 39.1021 21.2898 38.4888 20.324 37.641C20.2528 37.5507 20.1105 37.3703 19.9478 37.3523C19.8766 37.2621 19.7343 37.0817 19.5716 37.0637C19.3581 36.7931 19.053 36.5947 18.748 36.3963C18.6768 36.306 18.5345 36.1256 18.3922 35.9452C18.2498 35.7648 18.1787 35.6746 18.0363 35.4942C17.894 35.3138 17.8228 35.2236 17.6805 35.0432L17.5381 34.8627L17.3958 34.6823C17.2535 34.5019 17.1823 34.4117 17.04 34.2313C16.8976 34.0509 16.8265 33.9607 16.6841 33.7803C16.4706 33.5096 16.1859 33.1488 15.9724 32.8782C15.8301 32.6978 15.7589 32.6076 15.6166 32.4272C15.4743 32.2467 15.4031 32.1565 15.2607 31.9761C15.1184 31.7957 15.0472 31.7055 14.9049 31.5251C14.7626 31.3447 14.6914 31.2545 14.5491 31.0741C13.5527 29.8112 12.9021 28.4219 12.1802 26.9424C11.4584 25.4629 10.9908 23.9292 10.6147 22.3233C10.2386 20.7174 10.0252 19.1295 9.97452 17.5596C9.9238 15.9897 10.0358 14.4378 10.2901 13.0663C10.4732 11.6046 10.8902 10.2511 11.3784 8.98785C11.8665 7.72458 12.3343 6.62372 12.8733 5.61307C13.0564 5.46867 13.1886 5.07164 13.3004 4.83703C13.392 4.76483 13.4835 4.69263 13.5038 4.53022C13.5242 4.36781 13.6869 4.38581 13.7072 4.2234C13.7987 4.1512 13.8902 4.07899 13.9106 3.91659C14.0021 3.84438 14.0936 3.77218 14.1851 3.69998C14.3682 3.55557 14.48 3.32096 14.5919 3.08635C14.7749 2.94194 14.958 2.79753 15.0698 2.56292C15.0698 2.56292 15.2529 2.41852 15.3444 2.34631C15.3444 2.34631 15.3444 2.34631 15.4359 2.27411C15.4359 2.27411 15.4359 2.27411 15.5274 2.20191C15.7105 2.0575 15.802 1.9853 15.985 1.84089L16.1681 1.69649C16.1681 1.69649 16.1681 1.69649 16.2596 1.62428C16.2596 1.62428 16.2596 1.62428 16.3511 1.55208C16.6256 1.33547 16.8087 1.19107 17.0832 0.974458C17.0832 0.974458 17.0832 0.974458 17.1747 0.902255C17.1747 0.902255 17.3578 0.757849 17.4493 0.685646C17.0223 0.144406 17.2053 0 17.2053 0C17.2053 0 17.185 0.16241 16.9816 0.469225L16.7986 0.613631C16.7986 0.613631 16.7986 0.613631 16.707 0.685834C16.524 0.83024 16.4121 1.06485 16.2088 1.37167C16.2088 1.37167 16.2088 1.37167 16.1172 1.44387C16.1172 1.44387 15.9342 1.58828 15.8427 1.66048C15.7512 1.73268 15.6393 1.96729 15.5274 2.20191C15.5274 2.20191 15.5274 2.20191 15.4359 2.27411C15.4359 2.27411 15.4359 2.27411 15.3444 2.34631L15.1614 2.49072C14.9783 2.63512 14.958 2.79753 14.8461 3.03215C14.6631 3.17655 14.6224 3.50137 14.5309 3.57357C14.5309 3.57357 14.3478 3.71798 14.3275 3.88039C14.3275 3.88039 14.1444 4.0248 14.1241 4.18721C14.1241 4.18721 13.9411 4.33161 13.9207 4.49402C13.9207 4.49402 13.7377 4.63843 13.7173 4.80084C13.6055 5.03545 13.4936 5.27006 13.3817 5.50467C13.0054 6.53333 12.5376 7.63419 12.141 8.82526C11.7443 10.0163 11.5815 11.3156 11.4188 12.6149C11.3271 14.0044 11.2355 15.3938 11.3066 16.8013C11.3777 18.2088 11.6826 19.7245 12.0078 21.0778C12.4043 22.5213 12.8922 23.8926 13.5632 25.1195C14.2342 26.3464 14.9764 27.6635 15.8304 28.7459C15.9727 28.9263 16.0439 29.0166 16.1862 29.197C16.3286 29.3774 16.3998 29.4676 16.5421 29.648C16.6133 29.7382 16.7556 29.9186 16.8268 30.0088C16.8979 30.099 17.0403 30.2794 17.1114 30.3697C17.3249 30.6403 17.5385 30.9109 17.752 31.1815C17.8231 31.2717 17.9655 31.4521 18.0366 31.5423C18.1078 31.6325 18.2501 31.813 18.3213 31.9032C18.3213 31.9032 18.3925 31.9934 18.4636 32.0836C18.5348 32.1738 18.5348 32.1738 18.606 32.264C18.6772 32.3542 18.8195 32.5346 18.8907 32.6248C18.9618 32.715 19.1042 32.8954 19.1753 32.9856C19.2465 33.0759 19.3888 33.2563 19.46 33.3465C19.6735 33.6171 19.9074 33.7253 20.2124 33.9237C20.2836 34.0139 20.4259 34.1943 20.5886 34.2123C20.6598 34.3026 20.8021 34.483 20.9648 34.501C22.9373 35.8719 24.7878 36.9 26.3332 37.7297C26.6382 37.9281 27.0348 38.0543 27.3398 38.2527C27.6448 38.4511 27.9702 38.4871 28.2752 38.6855C28.5091 38.7938 28.7429 38.902 28.9768 39.0102C29.1191 39.1906 29.3733 39.1364 29.4445 39.2266C31.5492 40.2005 33.42 41.0662 34.7317 41.7876C36.0433 42.5091 36.8668 43.1766 36.7346 43.5736L37.7208 44.259Z" fill="#1A73E9"></path><path d="M14.9455 32.5175C14.9455 32.5175 14.9455 32.5176 14.8743 32.4273C14.732 32.2469 14.6608 32.1567 14.5185 31.9763C14.4473 31.8861 14.305 31.7057 14.2338 31.6155C13.2374 30.3526 12.5156 28.8731 11.865 27.4838C11.1432 26.0043 10.6756 24.4706 10.2995 22.8647C9.92339 21.2588 9.70999 19.6709 9.65927 18.101C9.60855 16.5311 9.72052 14.9792 9.90366 13.5175C10.158 12.146 10.5038 10.7023 10.992 9.43907C11.3886 8.24801 11.8564 7.14715 12.4869 6.06429C12.5784 5.99209 12.6903 5.75748 12.7106 5.59507L12.9852 5.37846L13.0259 5.05364L13.2089 4.90923L13.392 4.76483C13.392 4.76483 13.4835 4.69263 13.575 4.62042C13.575 4.62042 13.6665 4.54822 13.758 4.47602C13.758 4.47602 13.758 4.47602 13.8495 4.40381L14.2563 3.79018C14.2563 3.79018 14.5309 3.57357 14.5512 3.41116C14.5512 3.41116 14.6427 3.33896 14.7342 3.26676L15.0088 3.05015C15.0088 3.05015 15.0088 3.05015 15.1003 2.97795C15.2834 2.83354 15.3749 2.76134 15.5579 2.61693L15.7409 2.47253L15.8325 2.40032C15.8325 2.40032 16.0156 0.938638 16.2901 0.722029C16.2901 0.722029 16.2901 0.722029 16.3817 0.649826C16.3817 0.649826 16.6562 0.433217 16.7477 0.361015C16.9308 0.216609 17.0223 0.144406 17.0223 0.144406L17.1138 0.0722029C17.1138 0.0722029 17.1138 0.0722029 17.0223 0.144406C17.0223 0.144406 16.8393 0.288812 16.8189 0.451221L16.6359 0.595627L16.5444 0.66783C16.3613 0.812236 16.2495 1.04685 16.0461 1.35366C16.0461 1.35366 16.0461 1.35366 15.9545 1.42587C15.9545 1.42587 15.7715 1.57027 15.68 1.64248L15.3647 2.1839C15.3647 2.1839 15.3647 2.1839 15.2732 2.25611L15.0902 2.40051C15.0902 2.40051 14.9987 2.47271 14.9072 2.54492C14.8156 2.61712 14.7241 2.68932 14.7038 2.85173C14.6123 2.92394 14.5207 2.99614 14.5004 3.15855L14.3174 3.30295C14.3174 3.30295 14.3885 3.39316 14.297 3.46536C14.297 3.46536 14.2055 3.53757 14.114 3.60977C14.114 3.60977 14.0225 3.68197 14.0021 3.84438L13.7072 4.2234C13.7072 4.2234 13.6157 4.2956 13.5953 4.45801C13.5038 4.53022 13.4835 4.69263 13.3716 4.92724L13.1886 5.07164C12.7919 6.26271 12.3953 7.45378 12.0902 8.57264C11.7647 9.85391 11.4392 11.1352 11.3679 12.3623C11.2763 13.7517 11.1847 15.1412 11.2558 16.5487C11.3268 17.9562 11.6318 19.4719 11.957 20.8252C12.3535 22.2687 12.8414 23.64 13.5124 24.8669C14.0919 26.1659 14.9256 27.4108 15.7796 28.4933C15.8508 28.5835 15.9931 28.7639 16.0643 28.8541C16.0643 28.8541 16.2066 29.0346 16.2778 29.1248L16.4201 29.3052C16.4913 29.3954 16.5624 29.4856 16.6336 29.5758C16.6336 29.5758 16.6336 29.5758 16.7048 29.666C16.7048 29.666 16.7759 29.7562 16.8471 29.8464C16.8471 29.8464 16.9895 30.0268 17.0606 30.117L17.203 30.2975C17.3453 30.4779 17.4876 30.6583 17.63 30.8387C17.63 30.8387 17.7011 30.9289 17.7723 31.0191C17.7723 31.0191 17.9146 31.1995 17.9858 31.2897L18.057 31.3799C18.057 31.3799 18.1993 31.5603 18.2705 31.6506C18.2705 31.6506 18.2705 31.6506 18.3417 31.7408C18.3417 31.7408 18.3417 31.7408 18.4128 31.831C18.4128 31.831 18.6263 32.1016 18.6975 32.1918L18.7687 32.282C18.7687 32.282 18.911 32.4624 18.9822 32.5526C18.9822 32.5526 19.1957 32.8232 19.2669 32.9134C19.2669 32.9134 19.2669 32.9134 19.338 33.0037C19.4804 33.1841 19.7142 33.2923 20.0192 33.4907C20.0192 33.4907 20.1616 33.6711 20.3243 33.6891C20.3243 33.6891 20.3954 33.7793 20.4666 33.8695C20.4666 33.8695 20.5378 33.9597 20.6089 34.0499C21.524 34.6452 22.4391 35.2404 23.5168 35.8537C24.2896 36.2685 25.0623 36.6834 26.0689 37.2064C26.3739 37.4048 26.6078 37.513 26.8416 37.6213C26.8416 37.6213 26.9128 37.7115 27.0755 37.7295C27.0755 37.7295 27.2178 37.9099 27.3805 37.9279C27.5228 38.1083 27.777 38.0541 27.9194 38.2345C27.9194 38.2345 28.3871 38.4509 28.621 38.5591C28.7633 38.7396 29.0175 38.6854 29.0887 38.7756C30.2579 39.3166 31.1934 39.7495 31.9661 40.1643C32.9015 40.5971 33.6742 41.012 34.2843 41.4088C35.057 41.8237 35.5044 42.2025 35.8094 42.4009C35.9517 42.5813 36.0941 42.7617 36.1653 42.8519C36.2364 42.9421 36.3076 43.0323 36.2872 43.1948C36.155 43.5918 35.067 43.7184 33.5317 43.4661C32.7183 43.3761 31.7625 43.1057 30.8067 42.8352C29.7798 42.4746 28.6613 42.1862 27.6548 41.6631C27.6548 41.6631 27.5124 41.4827 27.2582 41.5369C27.2582 41.5369 27.2582 41.5369 27.187 41.4467C27.0447 41.2663 26.7193 41.2303 26.4855 41.1221C26.3431 40.9417 26.0178 40.9056 25.7839 40.7974C25.7839 40.7974 25.6416 40.617 25.5501 40.6892C25.5501 40.6892 25.4789 40.599 25.4077 40.5088C25.1027 40.3104 24.8688 40.2022 24.5638 40.0038C23.5572 39.4807 22.7133 38.9757 21.9406 38.5608C20.8628 37.9476 19.8766 37.2621 18.9819 36.5045L18.8395 36.324L18.6972 36.1436C18.6972 36.1436 18.626 36.0534 18.5549 35.9632C18.5549 35.9632 18.4837 35.873 18.4125 35.7828C18.199 35.5122 17.9652 35.404 17.6601 35.2056C17.6601 35.2056 17.6601 35.2056 17.589 35.1154C17.5178 35.0251 17.3755 34.8447 17.3043 34.7545C17.3043 34.7545 17.0908 34.4839 16.9484 34.3035C16.8061 34.1231 16.7349 34.0329 16.5926 33.8525L16.4503 33.672C16.4503 33.672 16.3791 33.5818 16.3079 33.4916L15.9521 33.0406C15.9521 33.0406 15.8097 32.8602 15.7386 32.77C15.7386 32.77 15.6674 32.6798 15.5962 32.5896C15.4539 32.4092 15.2404 32.1385 15.0269 31.8679L14.8846 31.6875C14.8134 31.5973 14.7422 31.5071 14.671 31.4169C14.671 31.4169 14.5999 31.3267 14.5287 31.2365C14.5287 31.2365 14.5287 31.2365 14.4575 31.1463L14.3152 30.9658L14.9455 32.5175ZM17.2053 0C17.2053 0 17.0223 0.144406 16.7477 0.361015C16.7477 0.361015 16.5647 0.50542 16.4732 0.577623L16.3817 0.649826C16.3817 0.649826 15.9241 1.01084 15.6495 1.22745C15.6495 1.22745 15.6495 1.22745 15.558 1.29965L15.2835 1.51626C15.1004 1.66067 15.0089 1.73287 14.8259 1.87728C14.8259 1.87728 14.8259 1.87728 14.7344 1.94948L14.4598 2.16609C14.4598 2.16609 14.3683 2.23829 14.3479 2.4007C14.2564 2.4729 14.0734 2.61731 14.053 2.77972L13.6463 3.39335C13.6463 3.39335 13.6463 3.39335 13.5547 3.46555C13.5547 3.46555 13.4632 3.53775 13.3717 3.60996C13.3717 3.60996 13.2802 3.68216 13.1887 3.75436L13.0056 3.89877L12.8226 4.04317L12.6396 4.18758L12.365 4.40419C12.365 4.40419 12.2328 4.80121 12.2125 4.96362C11.582 6.04648 11.1853 7.23754 10.7175 8.3384C10.3005 9.69188 9.88352 11.0454 9.62921 12.4168C9.35456 13.9507 9.3341 15.4304 9.31365 16.9101C9.36437 18.48 9.57777 20.0679 9.95386 21.6738C10.33 23.2797 10.7976 24.8134 11.5194 26.2929C12.17 27.6822 12.9833 29.0895 13.8882 30.4246C13.9594 30.5148 14.1017 30.6952 14.1729 30.7854C14.3152 30.9658 14.3864 31.0561 14.5287 31.2365C14.5999 31.3267 14.671 31.4169 14.8134 31.5973C14.8134 31.5973 14.8134 31.5973 14.8846 31.6875C14.8846 31.6875 14.9557 31.7777 15.0269 31.8679C15.0981 31.9581 15.1692 32.0483 15.2404 32.1385L15.3827 32.3189C15.5251 32.4994 15.7386 32.77 15.9521 33.0406C15.9521 33.0406 16.0233 33.1308 16.0944 33.221C16.1656 33.3112 16.2368 33.4014 16.3079 33.4916L16.6638 33.9427C16.6638 33.9427 16.7349 34.0329 16.8061 34.1231L16.9484 34.3035C17.0908 34.4839 17.162 34.5741 17.3043 34.7545C17.4466 34.9349 17.5178 35.0251 17.6601 35.2056C17.6601 35.2056 17.8736 35.4762 17.9448 35.5664C17.9448 35.5664 17.9448 35.5664 18.016 35.6566C18.2295 35.9272 18.4633 36.0354 18.7684 36.2338C18.7684 36.2338 18.8395 36.324 18.9107 36.4143C18.9107 36.4143 18.9819 36.5045 19.053 36.5947L19.1954 36.7751C19.1954 36.7751 19.3377 36.9555 19.4292 36.8833C20.4155 37.5687 21.4017 38.2542 22.388 38.9397C23.2319 39.4447 24.0758 39.9498 25.0112 40.3826C25.3162 40.581 25.5501 40.6892 25.8551 40.8876C25.8551 40.8876 25.9262 40.9778 25.9974 41.0681C25.9974 41.0681 26.1398 41.2485 26.2313 41.1763C26.3736 41.3567 26.699 41.3927 26.9328 41.5009C27.1667 41.6091 27.4005 41.7173 27.6344 41.8255C27.6344 41.8255 27.6344 41.8255 27.7056 41.9157C27.7767 42.0059 27.9394 42.0239 28.1021 42.0419C29.2002 42.4928 30.2272 42.8534 31.2541 43.2141C32.2099 43.4845 33.1656 43.7549 33.9791 43.845C34.7925 43.935 35.4432 44.007 35.9516 43.8986C36.4601 43.7902 36.7143 43.736 36.8261 43.5014C36.8261 43.5014 36.8465 43.339 36.7041 43.1586C36.633 43.0684 36.4906 42.8879 36.3483 42.7075C36.0636 42.3467 35.5247 42.0401 34.8232 41.7154C34.2131 41.3186 33.4404 40.9038 32.505 40.4709C31.7322 40.0561 30.7968 39.6232 29.6275 39.0822C29.6275 39.0822 29.3937 38.974 29.1598 38.8658C29.0175 38.6854 28.6921 38.6494 28.4583 38.5411C28.4583 38.5411 28.0617 38.4149 27.8279 38.3067C27.8279 38.3067 27.6855 38.1263 27.5228 38.1083C27.5228 38.1083 27.4517 38.0181 27.289 38.0001C27.0551 37.8919 26.7501 37.6935 26.5163 37.5853C25.5808 37.1524 24.7369 36.6474 23.9642 36.2325C22.8864 35.6193 21.9714 35.024 21.0563 34.4288C21.0563 34.4288 20.9851 34.3386 20.914 34.2484C20.914 34.2484 20.8428 34.1581 20.7716 34.0679C20.7005 33.9777 20.6293 33.8875 20.5581 33.7973C20.5581 33.7973 20.1819 33.5087 19.8769 33.3103C19.8769 33.3103 19.8769 33.3103 19.8057 33.2201C19.7346 33.1299 19.5922 32.9495 19.5211 32.8592C19.5211 32.8592 19.3787 32.6788 19.3075 32.5886L19.2364 32.4984C19.2364 32.4984 19.0229 32.2278 18.8602 32.2098C18.8602 32.2098 18.8602 32.2098 18.789 32.1196C18.789 32.1196 18.789 32.1196 18.7179 32.0294C18.7179 32.0294 18.5755 31.849 18.5043 31.7588L18.4332 31.6686C18.4332 31.6686 18.2908 31.4881 18.2197 31.3979C18.2197 31.3979 18.1485 31.3077 18.0773 31.2175C17.935 31.0371 17.7927 30.8567 17.6503 30.6763L17.508 30.4959C17.508 30.4959 17.3656 30.3155 17.2945 30.2252C17.2945 30.2252 17.2233 30.135 17.1521 30.0448C17.1521 30.0448 17.1521 30.0448 17.081 29.9546C17.0098 29.8644 16.9386 29.7742 16.8675 29.684L16.7251 29.5036C16.7251 29.5036 16.5828 29.3232 16.5116 29.233C16.4404 29.1428 16.2981 28.9624 16.2269 28.8721C15.3729 27.7897 14.6308 26.4726 13.9598 25.2457C13.3803 23.9466 12.7297 22.5573 12.4044 21.204C12.0079 19.7605 11.7742 18.335 11.7031 16.9275C11.6321 15.5201 11.561 14.1126 11.8153 12.7411C11.9781 11.4418 12.1409 10.1425 12.5375 8.95147C12.8426 7.83261 13.3105 6.73175 13.7783 5.63089L13.9613 5.48648C13.9613 5.48648 13.9308 5.07146 14.1139 4.92705C14.1139 4.92705 14.2054 4.85485 14.2257 4.69244L14.5003 4.47583L14.358 4.29542C14.358 4.29542 14.4495 4.22321 14.4698 4.0608C14.4698 4.0608 14.5613 3.9886 14.6529 3.9164C14.6529 3.9164 14.6529 3.9164 14.7444 3.84419L14.9274 3.69979C14.9274 3.69979 14.9681 3.37497 15.0596 3.30277C15.1511 3.23056 15.2427 3.15836 15.263 2.99595C15.263 2.99595 15.3545 2.92375 15.446 2.85155C15.446 2.85155 15.5376 2.77934 15.6291 2.70714L15.8121 2.56273L16.1274 2.02131C16.1274 2.02131 16.2189 1.9491 16.3104 1.8769L16.4934 1.73249C16.4934 1.73249 16.8087 1.19107 16.9917 1.04666L16.8494 0.866247C16.8494 0.866247 17.1239 0.649638 17.2154 0.577435C17.2561 0.252616 17.2765 0.0902067 17.2053 0Z" fill="#1A73E9"></path></g></svg>