<svg xmlns="http://www.w3.org/2000/svg" width="273" height="149" viewBox="0 0 273 149" fill="none"><path d="M3.2418 141.577C5.03847 141.577 6.48365 143.035 6.48365 144.819C6.48365 146.602 5.02546 148.061 3.24181 148.061C1.45815 148.061 -6.37388e-08 146.602 -1.41705e-07 144.819C-2.1967e-07 143.035 1.45815 141.577 3.2418 141.577Z" fill="#1A73E9"></path><path d="M3.2418 94.577C5.03847 94.577 6.48365 96.0352 6.48365 97.8188C6.48365 99.6025 5.02546 101.061 3.24181 101.061C1.45815 101.061 -6.37379e-08 99.6025 -1.41704e-07 97.8188C-2.1967e-07 96.0352 1.45815 94.577 3.2418 94.577Z" fill="#1A73E9"></path><path d="M3.2418 47.5771C5.03847 47.5771 6.48365 49.0353 6.48365 50.8189C6.48365 52.6026 5.02546 54.0607 3.24181 54.0607C1.45815 54.0607 -6.37388e-08 52.6026 -1.41705e-07 50.8189C-2.19671e-07 49.0353 1.45815 47.5771 3.2418 47.5771Z" fill="#1A73E9"></path><path d="M3.2418 0.590284C5.03847 0.590283 6.48365 2.04846 6.48365 3.83211C6.48365 5.61576 5.02546 7.07391 3.24181 7.07391C1.45815 7.07391 -6.37379e-08 5.61576 -1.41704e-07 3.83211C-2.1967e-07 2.04846 1.45815 0.590284 3.2418 0.590284Z" fill="#1A73E9"></path><path d="M47.4945 141.577C49.2912 141.577 50.7363 143.035 50.7363 144.819C50.7363 146.602 49.2782 148.06 47.4945 148.06C45.7109 148.06 44.2527 146.602 44.2527 144.819C44.2527 143.035 45.7109 141.577 47.4945 141.577Z" fill="#1A73E9"></path><path d="M47.4945 94.577C49.2912 94.577 50.7363 96.0352 50.7363 97.8188C50.7363 99.6025 49.2782 101.061 47.4945 101.061C45.7109 101.061 44.2527 99.6025 44.2527 97.8188C44.2527 96.0352 45.7109 94.577 47.4945 94.577Z" fill="#1A73E9"></path><path d="M47.4945 47.5771C49.2912 47.5771 50.7363 49.0353 50.7363 50.819C50.7363 52.6026 49.2782 54.0608 47.4945 54.0608C45.7109 54.0608 44.2527 52.6026 44.2527 50.819C44.2527 49.0353 45.7109 47.5771 47.4945 47.5771Z" fill="#1A73E9"></path><path d="M47.4945 0.590284C49.2912 0.590283 50.7363 2.04846 50.7363 3.83211C50.7363 5.61576 49.2782 7.07391 47.4945 7.07391C45.7109 7.07391 44.2527 5.61576 44.2527 3.83211C44.2527 2.04846 45.7109 0.590284 47.4945 0.590284Z" fill="#1A73E9"></path><path d="M136.486 141.577C138.283 141.577 139.728 143.035 139.728 144.819C139.728 146.602 138.27 148.06 136.486 148.06C134.703 148.06 133.245 146.602 133.245 144.819C133.245 143.035 134.703 141.577 136.486 141.577Z" fill="#1A73E9"></path><path d="M136.486 94.577C138.283 94.577 139.728 96.0352 139.728 97.8188C139.728 99.6025 138.27 101.061 136.486 101.061C134.703 101.061 133.245 99.6025 133.245 97.8188C133.245 96.0352 134.703 94.577 136.486 94.577Z" fill="#1A73E9"></path><path d="M136.486 47.5771C138.283 47.5771 139.728 49.0353 139.728 50.819C139.728 52.6026 138.27 54.0608 136.486 54.0608C134.703 54.0608 133.245 52.6026 133.245 50.819C133.245 49.0353 134.703 47.5771 136.486 47.5771Z" fill="#1A73E9"></path><path d="M136.486 0.590345C138.283 0.590344 139.728 2.04852 139.728 3.83217C139.728 5.61582 138.27 7.07397 136.486 7.07397C134.703 7.07397 133.245 5.61582 133.245 3.83217C133.245 2.04852 134.703 0.590345 136.486 0.590345Z" fill="#1A73E9"></path><path d="M87.5729 141.577C89.3695 141.577 90.8147 143.035 90.8147 144.819C90.8147 146.602 89.3565 148.061 87.5729 148.061C85.7892 148.061 84.3311 146.602 84.3311 144.819C84.3311 143.035 85.7892 141.577 87.5729 141.577Z" fill="#1A73E9"></path><path d="M87.5729 94.577C89.3695 94.577 90.8147 96.0352 90.8147 97.8188C90.8147 99.6025 89.3565 101.061 87.5729 101.061C85.7892 101.061 84.3311 99.6025 84.3311 97.8188C84.3311 96.0352 85.7892 94.577 87.5729 94.577Z" fill="#1A73E9"></path><path d="M87.5729 47.5771C89.3695 47.5771 90.8147 49.0353 90.8147 50.8189C90.8147 52.6026 89.3565 54.0607 87.5729 54.0607C85.7892 54.0607 84.3311 52.6026 84.3311 50.8189C84.3311 49.0353 85.7892 47.5771 87.5729 47.5771Z" fill="#1A73E9"></path><path d="M87.5729 0.590284C89.3695 0.590283 90.8147 2.04846 90.8147 3.83211C90.8147 5.61576 89.3565 7.07391 87.5729 7.07391C85.7892 7.07391 84.3311 5.61576 84.3311 3.83211C84.3311 2.04846 85.7892 0.590284 87.5729 0.590284Z" fill="#1A73E9"></path><path d="M180.726 141.577C182.523 141.577 183.968 143.035 183.968 144.819C183.968 146.602 182.51 148.06 180.726 148.06C178.943 148.06 177.485 146.602 177.485 144.819C177.485 143.035 178.943 141.577 180.726 141.577Z" fill="#1A73E9"></path><path d="M180.726 94.577C182.523 94.577 183.968 96.0352 183.968 97.8189C183.968 99.6025 182.51 101.061 180.726 101.061C178.943 101.061 177.485 99.6025 177.485 97.8189C177.485 96.0352 178.943 94.577 180.726 94.577Z" fill="#1A73E9"></path><path d="M180.726 47.5771C182.523 47.5771 183.968 49.0353 183.968 50.819C183.968 52.6026 182.51 54.0608 180.726 54.0608C178.943 54.0608 177.485 52.6026 177.485 50.819C177.485 49.0353 178.943 47.5771 180.726 47.5771Z" fill="#1A73E9"></path><path d="M180.726 0.590284C182.523 0.590283 183.968 2.04846 183.968 3.83211C183.968 5.61576 182.51 7.07391 180.726 7.07391C178.943 7.07391 177.485 5.61576 177.485 3.83211C177.485 2.04846 178.943 0.590284 180.726 0.590284Z" fill="#1A73E9"></path><path d="M224.966 141.577C226.763 141.577 228.208 143.035 228.208 144.819C228.208 146.602 226.75 148.06 224.966 148.06C223.183 148.06 221.724 146.602 221.724 144.819C221.724 143.035 223.183 141.577 224.966 141.577Z" fill="#1A73E9"></path><path d="M224.966 94.577C226.763 94.577 228.208 96.0352 228.208 97.8189C228.208 99.6025 226.75 101.061 224.966 101.061C223.182 101.061 221.724 99.6025 221.724 97.8189C221.724 96.0352 223.182 94.577 224.966 94.577Z" fill="#1A73E9"></path><path d="M224.966 47.5771C226.763 47.5771 228.208 49.0353 228.208 50.819C228.208 52.6026 226.75 54.0608 224.966 54.0608C223.182 54.0608 221.724 52.6026 221.724 50.819C221.724 49.0353 223.182 47.5771 224.966 47.5771Z" fill="#1A73E9"></path><path d="M224.966 0.590284C226.763 0.590283 228.208 2.04846 228.208 3.83211C228.208 5.61576 226.75 7.07391 224.966 7.07391C223.182 7.07391 221.724 5.61576 221.724 3.83211C221.724 2.04846 223.182 0.590284 224.966 0.590284Z" fill="#1A73E9"></path><path d="M269.219 141.577C271.016 141.577 272.461 143.035 272.461 144.819C272.461 146.602 271.003 148.06 269.219 148.06C267.435 148.06 265.977 146.602 265.977 144.819C265.977 143.035 267.435 141.577 269.219 141.577Z" fill="#1A73E9"></path><path d="M269.219 94.577C271.015 94.577 272.46 96.0352 272.46 97.8189C272.46 99.6025 271.002 101.061 269.219 101.061C267.435 101.061 265.977 99.6025 265.977 97.8189C265.977 96.0352 267.435 94.577 269.219 94.577Z" fill="#1A73E9"></path><path d="M269.219 47.5771C271.016 47.5771 272.461 49.0353 272.461 50.8189C272.461 52.6026 271.003 54.0607 269.219 54.0607C267.435 54.0607 265.977 52.6026 265.977 50.8189C265.977 49.0353 267.435 47.5771 269.219 47.5771Z" fill="#1A73E9"></path><path d="M269.219 0.590345C271.016 0.590344 272.461 2.04852 272.461 3.83217C272.461 5.61582 271.003 7.07397 269.219 7.07397C267.435 7.07397 265.977 5.61582 265.977 3.83217C265.977 2.04852 267.435 0.590345 269.219 0.590345Z" fill="#1A73E9"></path></svg>