<svg xmlns="http://www.w3.org/2000/svg" width="274" height="274" viewBox="0 0 274 274" fill="none"><g opacity="0.4"><path d="M87.5373 9.04602L8.34985 89.4138C10.2882 84.1454 12.5497 79.0262 15.0969 74.0808L72.3161 16.0167C77.2117 13.3949 82.2937 11.0589 87.5373 9.04602V9.04602Z" fill="#1A73E9"></path><path d="M113.271 1.9632L1.65283 115.234C2.21198 111.655 2.9078 108.114 3.76516 104.622L102.709 4.19978C106.176 3.31757 109.692 2.55962 113.271 1.9632Z" fill="#1A73E9"></path><path d="M133.959 0L0 135.959C0 133.002 0.111829 130.07 0.310636 127.162L125.174 0.447316C128.082 0.198807 131.002 0.0497018 133.959 0V0Z" fill="#1A73E9"></path><path d="M151.901 0.820074L1.06853 153.902C0.745463 151.354 0.496954 148.77 0.322998 146.173L144.185 0.17395C146.782 0.31063 149.354 0.521863 151.901 0.820074V0.820074Z" fill="#1A73E9"></path><path d="M167.93 3.57868L4.07542 169.869C3.50385 167.595 2.98198 165.283 2.53467 162.96L160.996 2.13733C163.332 2.55979 165.644 3.03196 167.93 3.57868V3.57868Z" fill="#1A73E9"></path><path d="M182.468 7.86543L8.57338 184.344C7.79058 182.281 7.0699 180.182 6.39893 178.069L176.155 5.77795C178.28 6.42408 180.393 7.10748 182.468 7.86543V7.86543Z" fill="#1A73E9"></path><path d="M195.763 13.3947L14.314 197.552C13.3697 195.664 12.4626 193.75 11.6177 191.812L189.985 10.7853C191.936 11.6178 193.862 12.4876 195.763 13.3947Z" fill="#1A73E9"></path><path d="M207.952 20.0544L21.148 209.654C20.0421 207.927 18.986 206.163 17.9795 204.386L202.647 16.9729C204.436 17.9545 206.213 18.9858 207.952 20.0544V20.0544Z" fill="#1A73E9"></path><path d="M219.148 27.7212L28.9762 220.738C27.7336 219.172 26.5408 217.557 25.3604 215.929L214.277 24.1923C215.93 25.323 217.557 26.5035 219.148 27.7212Z" fill="#1A73E9"></path><path d="M229.411 36.3444L37.7361 230.877C36.3569 229.448 35.0273 227.97 33.7227 226.479L224.95 32.3931C226.466 33.6605 227.957 34.9776 229.411 36.3444V36.3444Z" fill="#1A73E9"></path><path d="M238.755 45.8873L47.4156 240.085C45.9122 238.792 44.4335 237.463 42.9922 236.096L234.704 41.526C236.109 42.9425 237.451 44.3963 238.755 45.8873Z" fill="#1A73E9"></path><path d="M247.192 56.3619L58.0147 248.36C56.3745 247.204 54.7592 246.012 53.1812 244.781L243.551 51.5781C244.806 53.1437 246.024 54.7341 247.192 56.3619V56.3619Z" fill="#1A73E9"></path><path d="M254.672 67.8057L69.5704 255.654C67.7936 254.66 66.0416 253.616 64.3145 252.523L251.454 62.587C252.572 64.3017 253.641 66.0413 254.672 67.8057Z" fill="#1A73E9"></path><path d="M261.133 80.2808L82.1571 261.916C80.2187 261.084 78.3052 260.201 76.4165 259.269L258.387 74.5899C259.344 76.4661 260.251 78.3548 261.133 80.2808V80.2808Z" fill="#1A73E9"></path><path d="M266.439 93.924L95.8623 267.035C93.7624 266.377 91.6749 265.669 89.6123 264.911L264.215 87.6989C265.01 89.7491 265.755 91.8241 266.439 93.924Z" fill="#1A73E9"></path><path d="M270.427 108.897L110.922 270.788C108.598 270.353 106.312 269.856 104.038 269.297L268.824 102.05C269.421 104.312 269.955 106.586 270.427 108.897Z" fill="#1A73E9"></path><path d="M272.788 125.547L127.584 272.913C125.012 272.751 122.453 272.515 119.93 272.204L271.956 117.905C272.316 120.427 272.589 122.975 272.788 125.547V125.547Z" fill="#1A73E9"></path><path d="M273.236 136.593C273.236 139.19 273.162 141.774 273.012 144.346L146.385 272.863C143.514 273.074 140.619 273.186 137.699 273.198L273.224 135.661C273.236 135.972 273.236 136.282 273.236 136.593V136.593Z" fill="#1A73E9"></path><path d="M271.844 156.089C271.347 159.605 270.713 163.084 269.943 166.501L168.502 269.458C165.085 270.291 161.618 270.974 158.102 271.521L271.844 156.089V156.089Z" fill="#1A73E9"></path><path d="M265.731 181.325C264.016 186.32 262.003 191.178 259.742 195.887L197.764 258.785C193.067 261.146 188.221 263.233 183.238 265.047L265.731 181.325Z" fill="#1A73E9"></path></g></svg>